<svg xmlns="http://www.w3.org/2000/svg" viewBox="0 0 507.83 470.86">
  <defs>
    <style>.cls-1{fill:#e2761b;stroke:#e2761b;stroke-linecap:round;stroke-linejoin:round;}.cls-2{fill:#e4761b;stroke:#e4761b;stroke-linecap:round;stroke-linejoin:round;}.cls-3{fill:#d7c1b3;stroke:#d7c1b3;stroke-linecap:round;stroke-linejoin:round;}.cls-4{fill:#233447;stroke:#233447;stroke-linecap:round;stroke-linejoin:round;}.cls-5{fill:#cd6116;stroke:#cd6116;stroke-linecap:round;stroke-linejoin:round;}.cls-6{fill:#e4751f;stroke:#e4751f;stroke-linecap:round;stroke-linejoin:round;}.cls-7{fill:#f6851b;stroke:#f6851b;stroke-linecap:round;stroke-linejoin:round;}.cls-8{fill:#c0ad9e;stroke:#c0ad9e;stroke-linecap:round;stroke-linejoin:round;}.cls-9{fill:#161616;stroke:#161616;stroke-linecap:round;stroke-linejoin:round;}.cls-10{fill:#763d16;stroke:#763d16;stroke-linecap:round;stroke-linejoin:round;}</style>
  </defs>
  <polygon class="cls-1" points="482.09 0.5 284.32 147.38 320.9 60.72 482.09 0.5"/>
  <polygon class="cls-2" points="25.54 0.5 221.72 148.77 186.93 60.72 25.54 0.5"/>
  <polygon class="cls-2" points="410.93 340.97 358.26 421.67 470.96 452.67 503.06 342.76 410.93 340.97"/>
  <polygon class="cls-2" points="4.97 342.76 36.87 452.67 149.57 421.67 96.9 340.97 4.97 342.76"/>
  <polygon class="cls-2" points="143.21 204.62 112.11 252.13 224.01 257.1 220.14 136.85 143.21 204.62"/>
  <polygon class="cls-2" points="364.42 204.62 286.29 135.46 284.32 257.1 396.02 252.13 364.42 204.62"/>
  <polygon class="cls-2" points="149.57 421.67 216.86 388.87 158.69 343.55 149.57 421.67"/>
  <polygon class="cls-2" points="290.77 388.87 358.26 421.67 349.14 343.55 290.77 388.87"/>
  <polygon class="cls-3" points="358.26 421.67 290.77 388.87 296.14 432.99 295.54 451.28 358.26 421.67"/>
  <polygon class="cls-3" points="149.57 421.67 212.29 451.28 211.89 432.99 216.86 388.87 149.57 421.67"/>
  <polygon class="cls-4" points="213.27 314.54 157.11 298.04 196.76 279.75 213.27 314.54"/>
  <polygon class="cls-4" points="294.36 314.54 310.86 279.75 350.71 298.04 294.36 314.54"/>
  <polygon class="cls-5" points="149.57 421.67 159.08 340.97 96.9 342.76 149.57 421.67"/>
  <polygon class="cls-5" points="348.75 340.97 358.26 421.67 410.93 342.76 348.75 340.97"/>
  <polygon class="cls-5" points="396.02 252.13 284.32 257.1 294.56 314.54 311.06 279.75 350.91 298.04 396.02 252.13"/>
  <polygon class="cls-5" points="157.11 298.04 196.96 279.75 213.27 314.54 223.71 257.1 112.11 252.13 157.11 298.04"/>
  <polygon class="cls-6" points="112.11 252.13 158.69 343.55 157.11 298.04 112.11 252.13"/>
  <polygon class="cls-6" points="350.91 298.04 349.14 343.55 396.02 252.13 350.91 298.04"/>
  <polygon class="cls-6" points="223.71 257.1 213.27 314.54 226.29 380.73 229.17 290.18 223.71 257.1"/>
  <polygon class="cls-6" points="284.32 257.1 279.06 289.98 281.34 380.73 294.56 314.54 284.32 257.1"/>
  <polygon class="cls-7" points="294.56 314.54 281.34 380.73 290.77 388.87 349.14 343.55 350.91 298.04 294.56 314.54"/>
  <polygon class="cls-7" points="157.11 298.04 158.69 343.55 216.86 388.87 226.29 380.73 213.27 314.54 157.11 298.04"/>
  <polygon class="cls-8" points="295.54 451.28 296.14 432.99 291.17 428.61 216.46 428.61 211.89 432.99 212.29 451.28 149.57 421.67 171.99 439.96 215.86 470.36 291.77 470.36 335.83 439.96 358.26 421.67 295.54 451.28"/>
  <polygon class="cls-9" points="290.77 388.87 281.34 380.73 226.29 380.73 216.86 388.87 211.89 432.99 216.46 428.61 291.17 428.61 296.14 432.99 290.77 388.87"/>
  <polygon class="cls-10" points="490.22 156.93 507.33 75.84 482.09 0.5 290.77 142.41 364.42 204.62 468.37 235.23 491.21 208.79 481.39 201.64 497.11 187.32 485.08 177.9 500.79 165.87 490.22 156.93"/>
  <polygon class="cls-10" points="0.5 75.84 17.61 156.93 6.84 165.87 22.55 177.9 10.72 187.32 26.44 201.64 16.62 208.79 39.26 235.23 143.21 204.62 216.86 142.41 25.54 0.5 0.5 75.84"/>
  <polygon class="cls-7" points="468.37 235.23 364.42 204.62 396.02 252.13 349.14 343.55 410.93 342.76 503.06 342.76 468.37 235.23"/>
  <polygon class="cls-7" points="143.21 204.62 39.26 235.23 4.97 342.76 96.9 342.76 158.69 343.55 112.11 252.13 143.21 204.62"/>
  <polygon class="cls-7" points="284.32 257.1 290.77 142.41 321.1 60.72 186.93 60.72 216.86 142.41 223.71 257.1 226.09 290.38 226.29 380.73 281.34 380.73 281.74 290.38 284.32 257.1"/>
</svg>
