<svg xmlns="http://www.w3.org/2000/svg" viewBox="0 0 480 480">
  <path fill="#3B99FC" d="M126.6 168c68.1-66.7 178.4-66.7 246.5 0l8.2 8c3.4 3.3 3.4 8.7 0 12.1l-28 27.5c-1.7 1.7-4.4 1.7-6.1 0l-11.3-11.1c-47.5-46.5-124.5-46.5-172 0l-12.1 11.9c-1.7 1.7-4.4 1.7-6.1 0l-28-27.5c-3.4-3.3-3.4-8.7 0-12.1l8.9-8.8zm304.6 56.7l25 24.5c3.4 3.3 3.4 8.7 0 12.1l-112.6 110.3c-3.4 3.3-8.9 3.3-12.3 0l-80-78.3c-.9-.8-2.2-.8-3.1 0l-80 78.3c-3.4 3.3-8.9 3.3-12.3 0L43.3 261.3c-3.4-3.3-3.4-8.7 0-12.1l25-24.5c3.4-3.3 8.9-3.3 12.3 0l80 78.3c.9.8 2.2.8 3.1 0l80-78.3c3.4-3.3 8.9-3.3 12.3 0l80 78.3c.9.8 2.2.8 3.1 0l80-78.3c3.4-3.4 8.9-3.4 12.3-.1z"/>
</svg>
